<svg id="Download" xmlns="http://www.w3.org/2000/svg" width="16" height="16" viewBox="0 0 16 16">
  <path id="Download-2" data-name="Download" d="M12.9,9.755a.736.736,0,1,1,.991,1.088L10,14.386,6.107,10.843A.736.736,0,0,1,7.1,9.755l2.165,1.971V2.736a.736.736,0,0,1,1.472,0v8.99ZM3.455,14.363a.727.727,0,0,0-1.455,0v.97A2.667,2.667,0,0,0,4.667,18H15.333A2.667,2.667,0,0,0,18,15.333v-.97a.727.727,0,0,0-1.455,0v.97a1.212,1.212,0,0,1-1.212,1.212H4.667a1.212,1.212,0,0,1-1.212-1.212Z" transform="translate(-2 -2)" fill="#303d4d" fill-rule="evenodd"/>
</svg>
