<svg xmlns="http://www.w3.org/2000/svg" width="16" height="16" viewBox="0 0 16 16">
  <g id="Grid" opacity="0.7">
    <path id="Path_20" data-name="Path 20" d="M16.5,12.5h-4v4h4Zm-4-1.5h4A1.5,1.5,0,0,1,18,12.5v4A1.5,1.5,0,0,1,16.5,18h-4A1.5,1.5,0,0,1,11,16.5v-4A1.5,1.5,0,0,1,12.5,11Z" transform="translate(-2 -2)" fill="#303d4d" fill-rule="evenodd"/>
    <path id="Path_21" data-name="Path 21" d="M7.5,3.5h-4v4h4Zm9,0h-4v4h4Zm-9,9h-4v4h4ZM7.5,2h-4A1.5,1.5,0,0,0,2,3.5v4A1.5,1.5,0,0,0,3.5,9h4A1.5,1.5,0,0,0,9,7.5v-4A1.5,1.5,0,0,0,7.5,2Zm9,0h-4A1.5,1.5,0,0,0,11,3.5v4A1.5,1.5,0,0,0,12.5,9h4A1.5,1.5,0,0,0,18,7.5v-4A1.5,1.5,0,0,0,16.5,2Zm-13,9h4A1.5,1.5,0,0,1,9,12.5v4A1.5,1.5,0,0,1,7.5,18h-4A1.5,1.5,0,0,1,2,16.5v-4A1.5,1.5,0,0,1,3.5,11Z" transform="translate(-2 -2)" fill="#303d4d" fill-rule="evenodd"/>
  </g>
</svg>
