<svg xmlns="http://www.w3.org/2000/svg" viewBox="0 0 13 16">
  <g id="Bell" opacity="0.7">
    <path id="Bell-2" data-name="Bell" d="M16.25,13.322c-.561-.649-1.61-1.625-1.61-4.822a4.855,4.855,0,0,0-3.712-4.849V3A.931.931,0,1,0,9.072,3v.651A4.855,4.855,0,0,0,5.359,8.5c0,3.2-1.049,4.173-1.61,4.822A1.019,1.019,0,0,0,3.5,14a.968.968,0,0,0,.931,1H15.568a.968.968,0,0,0,.932-1A1.018,1.018,0,0,0,16.25,13.322ZM5.46,13.5A8.251,8.251,0,0,0,6.752,8.518c0-.006,0-.012,0-.018A3.382,3.382,0,0,1,10,5a3.382,3.382,0,0,1,3.25,3.5c0,.006,0,.012,0,.018A8.25,8.25,0,0,0,14.54,13.5ZM10,18a1.932,1.932,0,0,0,1.856-2H8.144A1.932,1.932,0,0,0,10,18Z" transform="translate(-3.5 -2)" fill="#6e7782"/>
  </g>
</svg>
