<svg xmlns="http://www.w3.org/2000/svg" viewBox="0 0 16 16">
  <g id="Image" opacity="0.7">
    <path id="Image-2" data-name="Image" d="M4.361,3.5a.861.861,0,0,0-.861.861V15.639a.861.861,0,0,0,.593.818l8.6-8.6a.75.75,0,0,1,1.061,0L16.5,10.606V4.361a.861.861,0,0,0-.861-.861ZM16.5,12.727,13.222,9.45,6.172,16.5h9.467a.861.861,0,0,0,.861-.861ZM2,4.361A2.361,2.361,0,0,1,4.361,2H15.639A2.361,2.361,0,0,1,18,4.361V15.639A2.361,2.361,0,0,1,15.639,18H4.361A2.361,2.361,0,0,1,2,15.639ZM7.181,6.722a.458.458,0,1,0,.458.458A.458.458,0,0,0,7.181,6.722Zm-1.958.458A1.958,1.958,0,1,1,7.181,9.139,1.958,1.958,0,0,1,5.222,7.181Z" transform="translate(-2 -2)" fill="#999fa7" fill-rule="evenodd"/>
  </g>
</svg>
