<svg xmlns="http://www.w3.org/2000/svg" width="15.999" height="15.34" viewBox="0 0 15.999 15.34">
  <g id="Cart" opacity="0.7">
    <path id="Cart-2" data-name="Cart" d="M1.75,2.33a.75.75,0,0,0,0,1.5H3.771L4.3,6.493q0,.03.012.06l1.1,5.5h0a2.068,2.068,0,0,0,2.06,1.664H13.87a2.068,2.068,0,0,0,2.06-1.665h0v-.006l1.054-5.529a.75.75,0,0,0-.737-.89H5.661L5.122,2.933a.75.75,0,0,0-.735-.6Zm5.138,9.428L5.961,7.125h9.382l-.884,4.636a.568.568,0,0,1-.568.455H7.456a.568.568,0,0,1-.568-.457Zm.135,4.595a.091.091,0,1,0-.091-.091A.091.091,0,0,0,7.022,16.353Zm-1.409-.091A1.409,1.409,0,1,1,7.022,17.67,1.409,1.409,0,0,1,5.614,16.261Zm8.658.091a.091.091,0,1,0-.091-.091A.091.091,0,0,0,14.272,16.353Zm-1.409-.091a1.409,1.409,0,1,1,1.409,1.409A1.409,1.409,0,0,1,12.863,16.261Z" transform="translate(-1 -2.33)" fill="#303d4d" fill-rule="evenodd"/>
  </g>
</svg>
