<svg xmlns="http://www.w3.org/2000/svg" viewBox="0 0 16 13">
  <g id="Mail" opacity="0.7">
    <path id="Mail-2" data-name="Mail" d="M3.583,5.354A.7.7,0,0,1,4.2,4.989H15.79a.7.7,0,0,1,.615.366L9.994,9.811ZM2,5.671q0,.011,0,.022v8.625A2.2,2.2,0,0,0,4.2,16.5H15.79a2.2,2.2,0,0,0,2.2-2.183q0-1.44.006-2.881C18,9.517,18.006,7.6,17.988,5.68c0,0,0-.006,0-.009V5.663A2.21,2.21,0,0,0,15.79,3.5H4.2A2.2,2.2,0,0,0,2,5.671ZM16.489,7.113v7.2a.7.7,0,0,1-.7.695H4.2a.7.7,0,0,1-.7-.695v-7.2l6.065,4.216a.754.754,0,0,0,.86,0Z" transform="translate(-2 -3.5)" fill="#6e7782" fill-rule="evenodd"/>
  </g>
</svg>
