<svg id="JPG_2" data-name="JPG / #2" xmlns="http://www.w3.org/2000/svg" viewBox="0 0 31 40">
  <path id="Path_1075" data-name="Path 1075" d="M21.978,0H1.055C.472,0,0,.468,0,1.376v37.91C0,39.532.472,40,1.055,40H29.945c.583,0,1.055-.468,1.055-.714V9.27c0-.5-.067-.657-.185-.775L22.426.184A.64.64,0,0,0,21.978,0Z" fill="#f2f2e8"/>
  <path id="Path_1076" data-name="Path 1076" d="M22.349.108V8.571h8.542Z" fill="#d9d7ca"/>
  <path id="Path_1077" data-name="Path 1077" d="M29.945,40H1.055A1.05,1.05,0,0,1,0,38.955v-11.1H31v11.1A1.05,1.05,0,0,1,29.945,40Z" fill="#14a085"/>
  <path id="Path_1078" data-name="Path 1078" d="M11.289,30.65v5.46a1.745,1.745,0,0,1-.181.832,1.49,1.49,0,0,1-.485.542,1.934,1.934,0,0,1-.7.285,4.018,4.018,0,0,1-.813.081,3.3,3.3,0,0,1-.49-.043,4.176,4.176,0,0,1-.58-.133q-.3-.091-.575-.2A2.1,2.1,0,0,1,7,37.213l.485-.77a1.422,1.422,0,0,0,.271.138c.117.047.246.092.385.133s.285.077.438.109a2.084,2.084,0,0,0,.428.047,1.461,1.461,0,0,0,.8-.195.769.769,0,0,0,.319-.661V30.65Z" fill="#fff"/>
  <path id="Path_1079" data-name="Path 1079" d="M14.133,37.8H12.992v-7.01h2.016a2.83,2.83,0,0,1,.884.143,2.4,2.4,0,0,1,.785.428,2.235,2.235,0,0,1,.561.689,1.91,1.91,0,0,1,.214.909,2.486,2.486,0,0,1-.181.966,2.017,2.017,0,0,1-.5.728,2.271,2.271,0,0,1-.78.456,3,3,0,0,1-1.008.161h-.847V37.8Zm0-6.144v2.777h1.046a1.242,1.242,0,0,0,.414-.072,1.043,1.043,0,0,0,.376-.233,1.139,1.139,0,0,0,.276-.451,2.141,2.141,0,0,0,.1-.718,1.942,1.942,0,0,0-.047-.394,1.138,1.138,0,0,0-.195-.428,1.152,1.152,0,0,0-.414-.342,1.53,1.53,0,0,0-.7-.138Z" fill="#fff"/>
  <path id="Path_1080" data-name="Path 1080" d="M23.863,34.188V36.9a2.049,2.049,0,0,1-.49.451,2.991,2.991,0,0,1-.57.29,2.942,2.942,0,0,1-.618.161,4.065,4.065,0,0,1-.632.049,2.875,2.875,0,0,1-1.155-.228,2.587,2.587,0,0,1-.922-.675,3.188,3.188,0,0,1-.618-1.122,5.541,5.541,0,0,1,0-3.114,3.172,3.172,0,0,1,.618-1.117,2.631,2.631,0,0,1,.927-.68,2.831,2.831,0,0,1,1.151-.233,2.945,2.945,0,0,1,1.065.19,2.6,2.6,0,0,1,.884.57l-.79.7a1.359,1.359,0,0,0-.523-.4,1.568,1.568,0,0,0-.609-.124,1.715,1.715,0,0,0-.671.133,1.436,1.436,0,0,0-.571.451,2.326,2.326,0,0,0-.394.823,4.855,4.855,0,0,0-.152,1.236,5.162,5.162,0,0,0,.147,1.236,2.536,2.536,0,0,0,.381.856,1.621,1.621,0,0,0,.552.495,1.384,1.384,0,0,0,.652.161c.07,0,.163,0,.28-.015a3.4,3.4,0,0,0,.352-.047,2.3,2.3,0,0,0,.337-.09.484.484,0,0,0,.238-.161V34.967H21.542v-.78h2.321Z" fill="#fff"/>
  <path id="Path_1081" data-name="Path 1081" d="M4,26l7.333-12,5.133,7.059,3.667-4.235L26,26Z" fill="#26b99a"/>
  <circle id="Ellipse_1" data-name="Ellipse 1" cx="3" cy="3" r="3" transform="translate(4 6)" fill="#c6c9cc"/>
</svg>
