<svg width="58" height="45" viewBox="0 0 58 45" fill="none" xmlns="http://www.w3.org/2000/svg">
<path d="M7.95823 38.6895V44.8886H6.89589V39.5433L3.85797 44.8886H3.52249L0.484576 39.5433V44.8701H0V38.6709H1.23008L4.02571 43.608L6.82134 38.6709H7.95823V38.6895ZM17.5006 44.8886H18.6934L15.4692 38.6895H14.8355L11.6112 44.8886H12.133L12.8413 43.5152H16.7738L17.5006 44.8886ZM13.0835 43.0883L14.8168 39.7103L16.5501 43.0883H13.0835ZM21.5636 44.1462C22.3464 44.6659 23.3715 45 24.6202 45C26.3348 45 27.6767 44.3875 27.6767 43.144C27.6767 40.861 22.8683 41.4735 22.8683 39.9145C22.8683 39.3576 23.3715 39.005 24.732 39.005C25.6452 39.005 26.4094 39.2092 26.9126 39.6546H27.0617L27.3413 39.2277C26.6517 38.7823 25.7198 38.5967 24.732 38.5967C22.8496 38.5967 21.8805 39.3948 21.8805 40.23C21.8805 42.4758 26.633 41.6406 26.633 43.4966C26.633 44.2576 25.9062 44.5917 24.6202 44.5917C23.5206 44.5917 22.5141 44.2205 21.9736 43.7379H21.8246L21.5636 44.1462ZM36.6414 44.8886H37.8342L34.6099 38.6895H33.9762L30.7519 44.8886H31.2738L31.982 43.5152H35.9145L36.6414 44.8886ZM32.2243 43.0883L33.9576 39.7103L35.6909 43.0883H32.2243ZM47.8425 44.8886L45.8297 42.086C46.9852 41.9004 47.5443 41.2879 47.5443 40.3413C47.5443 39.2277 46.7616 38.6895 45.1028 38.6895H41.4871V44.8886H42.5495V42.1417H44.7301L46.5006 44.8886H47.8425ZM42.5681 39.1164H45.1028C45.8483 39.1164 46.2956 39.4319 46.2956 40.1372V40.6383C46.2956 41.3436 45.8297 41.7148 45.1028 41.7148H42.5681V39.1164ZM56.7886 44.8886H57.9814L54.7571 38.6895H54.1234L50.8991 44.8886H51.4209L52.1292 43.5152H56.0617L56.7886 44.8886ZM52.3715 43.0883L54.1048 39.7103L55.838 43.0883H52.3715ZM2.31105 32.2119C2.06877 32.713 1.491 32.9914 0.950514 32.8615C0.391388 32.7316 0 32.249 0 31.6736V1.21606C0 0.714931 0.316838 0.269482 0.782776 0.0838784C1.24871 -0.101725 1.7892 0.0281972 2.12468 0.399405L10.5302 9.66104L14.8728 0.696371C15.0405 0.343724 15.3946 0.0838784 15.786 0.0281972C16.1774 -0.0274839 16.5874 0.102439 16.867 0.399405L29.2236 13.5958C29.2796 13.6515 29.3355 13.6701 29.3914 13.6701C29.4287 13.6701 29.5032 13.6515 29.5591 13.5958L41.6735 0.399405C41.9531 0.102439 42.3631 -0.0460443 42.7545 0.0281972C43.1645 0.0838784 43.5 0.343724 43.6677 0.714931L46.6125 7.02546L44.8419 8.9743L42.2326 3.40619L31.3483 15.2291C30.8451 15.7674 30.1369 16.0829 29.3914 16.0829H29.3728C28.6459 16.0829 27.919 15.7674 27.4344 15.2477L16.2892 3.35051L2.31105 32.2119ZM9.37468 12.0368L2.44152 4.37133V26.3839L9.37468 12.0368ZM57.2172 0.0838784C56.7513 -0.101725 56.2108 0.0281972 55.8753 0.399405L29.0373 29.7062C28.9814 29.7619 28.9068 29.7805 28.8695 29.7805C28.8323 29.7805 28.7577 29.7619 28.7018 29.7062L14.0154 13.5216L12.8785 15.8788L26.894 31.321C27.3972 31.8778 28.1054 32.1933 28.8695 32.1933C29.615 32.1933 30.3419 31.8778 30.8451 31.321L55.5585 4.35277V26.1983L49.8927 14.0413L48.1221 15.9901L55.6889 32.1933C55.894 32.6202 56.3226 32.8986 56.7886 32.8986C56.8817 32.8986 56.9563 32.8986 57.0495 32.8615C57.6086 32.7316 58 32.249 58 31.6736V1.21606C57.9814 0.714931 57.6832 0.269482 57.2172 0.0838784Z" fill="#262626"/>
</svg>
