<svg id="User" xmlns="http://www.w3.org/2000/svg" width="14" height="16" viewBox="0 0 14 16">
  <path id="User-2" data-name="User" d="M12.269,5.733A2.27,2.27,0,1,1,10,3.5,2.251,2.251,0,0,1,12.269,5.733Zm1.5,0A3.769,3.769,0,1,1,10,2,3.751,3.751,0,0,1,13.769,5.733Zm-5.306,6.3h3.073A4.081,4.081,0,0,1,15.5,16.222a.311.311,0,0,1-.082.218.17.17,0,0,1-.125.06H4.707a.17.17,0,0,1-.125-.06.311.311,0,0,1-.082-.218A4.081,4.081,0,0,1,8.463,12.033ZM3,16.222a5.58,5.58,0,0,1,5.463-5.689h3.073A5.58,5.58,0,0,1,17,16.222,1.744,1.744,0,0,1,15.293,18H4.707A1.744,1.744,0,0,1,3,16.222Z" transform="translate(-3 -2)" fill="#6e7782" fill-rule="evenodd"/>
</svg>
